<svg width="544" height="127" viewBox="0 0 544 127" fill="none" xmlns="http://www.w3.org/2000/svg">
<path d="M46.5 85C37.3757 94.9802 29.5 112 29.5 112C29.5 112 42.4133 99.1548 51 95.5C78.6194 88.0143 88.8881 78.8985 92 62C95.1119 45.1015 95 47 99.5 42.5C104 38 123.5 31 123.5 31C123.5 31 108.735 30.7377 99.5 34C84.7605 21.9263 69.8616 33.8585 71 41.5C72.1384 49.1415 71.172 48.0593 70.5 49.5C69.828 50.9407 72.6578 55.1741 72 59C71.6758 58.1892 71.3433 57.4093 71 56.6581C65.6918 45.0432 57.8171 40.3345 38.5 35.5C20.4605 30.131 12.3412 26.0857 0.5 17.5C2.87309 33.1355 13.7635 38.3892 46 49.5C33.3635 48.3381 27.4391 47.124 15 42.5C18.8252 48.3974 20 53.6242 32 55.2824C44 56.9405 45 56.5 48.5 59C41.7299 60.4477 32 58 32 58C32 58 36 63.1643 43 65C57.5365 68.812 58.3234 71.5852 46.5 85Z" fill="#193992" style="fill:#193992;fill:color(display-p3 0.0961 0.2236 0.5740);fill-opacity:1;"/>
<path d="M68.5 96.5C45.8491 103.005 35.6269 110.002 28.5 127C88.4799 120.696 114.633 107.051 139.5 63L152.5 41.5L166.5 55.5V0L118.5 21.1284L133 29.5C107.55 72.2293 93.3955 88.904 68.5 96.5Z" fill="#193992" style="fill:#193992;fill:color(display-p3 0.0961 0.2236 0.5740);fill-opacity:1;"/>
<path d="M40.314 33.5C35.7581 25.9169 35.7726 19.1166 37.814 5C43.2541 18.6079 47.9238 24.18 58.314 31.5C67.442 39.2106 69.9299 41.9878 69.314 48C60.1465 38.9767 52.8623 37.1963 40.314 33.5Z" fill="url(#paint0_linear_2011_129)"/>
<path d="M36.5 76.5791C33 75.6142 8 81.0791 8 81.0791C8 81.0791 33 83.5791 36.5 82.5791C40 81.5791 40 77.5439 36.5 76.5791Z" fill="url(#paint1_linear_2011_129)"/>
<path d="M28.5 66.5791C25 65.6142 0 71.0791 0 71.0791C0 71.0791 25 73.5791 28.5 72.5791C32 71.5791 32 67.5439 28.5 66.5791Z" fill="url(#paint2_linear_2011_129)"/>
<path d="M28.5 86.5C25 85.5351 0 91 0 91C0 91 25 93.5 28.5 92.5C32 91.5 32 87.4649 28.5 86.5Z" fill="url(#paint3_linear_2011_129)"/>
<path d="M67.6907 79.1364C57.771 85.6095 40.6857 97.7183 29.5 112C38.3949 102.979 46.7212 99.58 53.6096 95.6056C60.4981 91.6312 98.7252 86.0675 98.3926 50.4033C99.4537 38.8605 137.7 25.5029 118 33C98.2999 40.4971 91.0795 44.4667 88.544 52.8809C86.0085 61.295 77.6103 72.6632 67.6907 79.1364Z" fill="url(#paint4_linear_2011_129)"/>
<path d="M68.6481 96.5C45.9154 103.005 35.6526 110.002 28.5 127C28.5 127 37.5 115 61.5 111C79.3376 108.027 94.8994 99.838 103.5 91.5C122.067 73.5 166.5 0 166.5 0L117 21.5L132 30C106.458 72.7293 93.6334 88.904 68.6481 96.5Z" fill="url(#paint5_linear_2011_129)"/>
<path d="M198.378 68L188.634 38.6H194.304L202.998 65.186H200.184L209.214 38.6H214.254L223.032 65.186H220.302L229.206 38.6H234.414L224.67 68H218.874L210.852 44.018H212.364L204.216 68H198.378ZM248.058 68.294C245.566 68.294 243.382 67.804 241.506 66.824C239.658 65.816 238.216 64.444 237.18 62.708C236.172 60.972 235.668 58.998 235.668 56.786C235.668 54.546 236.158 52.572 237.138 50.864C238.146 49.128 239.518 47.77 241.254 46.79C243.018 45.81 245.02 45.32 247.26 45.32C249.444 45.32 251.39 45.796 253.098 46.748C254.806 47.7 256.15 49.044 257.13 50.78C258.11 52.516 258.6 54.56 258.6 56.912C258.6 57.136 258.586 57.388 258.558 57.668C258.558 57.948 258.544 58.214 258.516 58.466H239.826V54.98H255.744L253.686 56.072C253.714 54.784 253.448 53.65 252.888 52.67C252.328 51.69 251.558 50.92 250.578 50.36C249.626 49.8 248.52 49.52 247.26 49.52C245.972 49.52 244.838 49.8 243.858 50.36C242.906 50.92 242.15 51.704 241.59 52.712C241.058 53.692 240.792 54.854 240.792 56.198V57.038C240.792 58.382 241.1 59.572 241.716 60.608C242.332 61.644 243.2 62.442 244.32 63.002C245.44 63.562 246.728 63.842 248.184 63.842C249.444 63.842 250.578 63.646 251.586 63.254C252.594 62.862 253.49 62.246 254.274 61.406L257.088 64.64C256.08 65.816 254.806 66.726 253.266 67.37C251.754 67.986 250.018 68.294 248.058 68.294ZM276.915 68.294C275.011 68.294 273.317 67.874 271.833 67.034C270.349 66.194 269.173 64.934 268.305 63.254C267.465 61.546 267.045 59.39 267.045 56.786C267.045 54.154 267.479 51.998 268.347 50.318C269.243 48.638 270.433 47.392 271.917 46.58C273.429 45.74 275.095 45.32 276.915 45.32C279.127 45.32 281.073 45.796 282.753 46.748C284.461 47.7 285.805 49.03 286.785 50.738C287.793 52.446 288.297 54.462 288.297 56.786C288.297 59.11 287.793 61.126 286.785 62.834C285.805 64.542 284.461 65.886 282.753 66.866C281.073 67.818 279.127 68.294 276.915 68.294ZM264.483 68V36.836H269.733V50.78L269.313 56.744L269.481 62.708V68H264.483ZM276.327 63.8C277.587 63.8 278.707 63.52 279.687 62.96C280.695 62.4 281.493 61.588 282.081 60.524C282.669 59.46 282.963 58.214 282.963 56.786C282.963 55.33 282.669 54.084 282.081 53.048C281.493 51.984 280.695 51.172 279.687 50.612C278.707 50.052 277.587 49.772 276.327 49.772C275.067 49.772 273.933 50.052 272.925 50.612C271.917 51.172 271.119 51.984 270.531 53.048C269.943 54.084 269.649 55.33 269.649 56.786C269.649 58.214 269.943 59.46 270.531 60.524C271.119 61.588 271.917 62.4 272.925 62.96C273.933 63.52 275.067 63.8 276.327 63.8ZM294.62 68V38.6H316.082V43.178H300.08V63.422H316.67V68H294.62ZM299.66 55.316V50.822H314.276V55.316H299.66ZM319.658 68L329.528 55.148L329.444 57.962L320.036 45.572H325.874L332.468 54.392H330.242L336.878 45.572H342.548L333.056 57.962L333.098 55.148L342.926 68H337.004L330.074 58.634L332.258 58.928L325.454 68H319.658ZM360.072 68.294C358.252 68.294 356.586 67.874 355.074 67.034C353.59 66.194 352.4 64.934 351.504 63.254C350.636 61.546 350.202 59.39 350.202 56.786C350.202 54.154 350.622 51.998 351.462 50.318C352.33 48.638 353.506 47.392 354.99 46.58C356.474 45.74 358.168 45.32 360.072 45.32C362.284 45.32 364.23 45.796 365.91 46.748C367.618 47.7 368.962 49.03 369.942 50.738C370.95 52.446 371.454 54.462 371.454 56.786C371.454 59.11 370.95 61.14 369.942 62.876C368.962 64.584 367.618 65.914 365.91 66.866C364.23 67.818 362.284 68.294 360.072 68.294ZM347.64 76.148V45.572H352.638V50.864L352.47 56.828L352.89 62.792V76.148H347.64ZM359.484 63.8C360.744 63.8 361.864 63.52 362.844 62.96C363.852 62.4 364.65 61.588 365.238 60.524C365.826 59.46 366.12 58.214 366.12 56.786C366.12 55.33 365.826 54.084 365.238 53.048C364.65 51.984 363.852 51.172 362.844 50.612C361.864 50.052 360.744 49.772 359.484 49.772C358.224 49.772 357.09 50.052 356.082 50.612C355.074 51.172 354.276 51.984 353.688 53.048C353.1 54.084 352.806 55.33 352.806 56.786C352.806 58.214 353.1 59.46 353.688 60.524C354.276 61.588 355.074 62.4 356.082 62.96C357.09 63.52 358.224 63.8 359.484 63.8ZM377.273 68V45.572H382.271V51.746L381.683 49.94C382.355 48.428 383.405 47.28 384.833 46.496C386.289 45.712 388.095 45.32 390.251 45.32V50.318C390.027 50.262 389.817 50.234 389.621 50.234C389.425 50.206 389.229 50.192 389.033 50.192C387.045 50.192 385.463 50.78 384.287 51.956C383.111 53.104 382.523 54.826 382.523 57.122V68H377.273ZM405.882 68.294C403.39 68.294 401.206 67.804 399.33 66.824C397.482 65.816 396.04 64.444 395.004 62.708C393.996 60.972 393.492 58.998 393.492 56.786C393.492 54.546 393.982 52.572 394.962 50.864C395.97 49.128 397.342 47.77 399.078 46.79C400.842 45.81 402.844 45.32 405.084 45.32C407.268 45.32 409.214 45.796 410.922 46.748C412.63 47.7 413.974 49.044 414.954 50.78C415.934 52.516 416.424 54.56 416.424 56.912C416.424 57.136 416.41 57.388 416.382 57.668C416.382 57.948 416.368 58.214 416.34 58.466H397.65V54.98H413.568L411.51 56.072C411.538 54.784 411.272 53.65 410.712 52.67C410.152 51.69 409.382 50.92 408.402 50.36C407.45 49.8 406.344 49.52 405.084 49.52C403.796 49.52 402.662 49.8 401.682 50.36C400.73 50.92 399.974 51.704 399.414 52.712C398.882 53.692 398.616 54.854 398.616 56.198V57.038C398.616 58.382 398.924 59.572 399.54 60.608C400.156 61.644 401.024 62.442 402.144 63.002C403.264 63.562 404.552 63.842 406.008 63.842C407.268 63.842 408.402 63.646 409.41 63.254C410.418 62.862 411.314 62.246 412.098 61.406L414.912 64.64C413.904 65.816 412.63 66.726 411.09 67.37C409.578 67.986 407.842 68.294 405.882 68.294ZM429.237 68.294C427.361 68.294 425.555 68.056 423.819 67.58C422.111 67.076 420.753 66.474 419.745 65.774L421.761 61.784C422.769 62.428 423.973 62.96 425.373 63.38C426.773 63.8 428.173 64.01 429.573 64.01C431.225 64.01 432.415 63.786 433.143 63.338C433.899 62.89 434.277 62.288 434.277 61.532C434.277 60.916 434.025 60.454 433.521 60.146C433.017 59.81 432.359 59.558 431.547 59.39C430.735 59.222 429.825 59.068 428.817 58.928C427.837 58.788 426.843 58.606 425.835 58.382C424.855 58.13 423.959 57.78 423.147 57.332C422.335 56.856 421.677 56.226 421.173 55.442C420.669 54.658 420.417 53.622 420.417 52.334C420.417 50.906 420.823 49.674 421.635 48.638C422.447 47.574 423.581 46.762 425.037 46.202C426.521 45.614 428.271 45.32 430.287 45.32C431.799 45.32 433.325 45.488 434.865 45.824C436.405 46.16 437.679 46.636 438.687 47.252L436.671 51.242C435.607 50.598 434.529 50.164 433.437 49.94C432.373 49.688 431.309 49.562 430.245 49.562C428.649 49.562 427.459 49.8 426.675 50.276C425.919 50.752 425.541 51.354 425.541 52.082C425.541 52.754 425.793 53.258 426.297 53.594C426.801 53.93 427.459 54.196 428.271 54.392C429.083 54.588 429.979 54.756 430.959 54.896C431.967 55.008 432.961 55.19 433.941 55.442C434.921 55.694 435.817 56.044 436.629 56.492C437.469 56.912 438.141 57.514 438.645 58.298C439.149 59.082 439.401 60.104 439.401 61.364C439.401 62.764 438.981 63.982 438.141 65.018C437.329 66.054 436.167 66.866 434.655 67.454C433.143 68.014 431.337 68.294 429.237 68.294ZM451.692 68.294C449.816 68.294 448.01 68.056 446.274 67.58C444.566 67.076 443.208 66.474 442.2 65.774L444.216 61.784C445.224 62.428 446.428 62.96 447.828 63.38C449.228 63.8 450.628 64.01 452.028 64.01C453.68 64.01 454.87 63.786 455.598 63.338C456.354 62.89 456.732 62.288 456.732 61.532C456.732 60.916 456.48 60.454 455.976 60.146C455.472 59.81 454.814 59.558 454.002 59.39C453.19 59.222 452.28 59.068 451.272 58.928C450.292 58.788 449.298 58.606 448.29 58.382C447.31 58.13 446.414 57.78 445.602 57.332C444.79 56.856 444.132 56.226 443.628 55.442C443.124 54.658 442.872 53.622 442.872 52.334C442.872 50.906 443.278 49.674 444.09 48.638C444.902 47.574 446.036 46.762 447.492 46.202C448.976 45.614 450.726 45.32 452.742 45.32C454.254 45.32 455.78 45.488 457.32 45.824C458.86 46.16 460.134 46.636 461.142 47.252L459.126 51.242C458.062 50.598 456.984 50.164 455.892 49.94C454.828 49.688 453.764 49.562 452.7 49.562C451.104 49.562 449.914 49.8 449.13 50.276C448.374 50.752 447.996 51.354 447.996 52.082C447.996 52.754 448.248 53.258 448.752 53.594C449.256 53.93 449.914 54.196 450.726 54.392C451.538 54.588 452.434 54.756 453.414 54.896C454.422 55.008 455.416 55.19 456.396 55.442C457.376 55.694 458.272 56.044 459.084 56.492C459.924 56.912 460.596 57.514 461.1 58.298C461.604 59.082 461.856 60.104 461.856 61.364C461.856 62.764 461.436 63.982 460.596 65.018C459.784 66.054 458.622 66.866 457.11 67.454C455.598 68.014 453.792 68.294 451.692 68.294Z" fill="#193992" style="fill:#193992;fill:color(display-p3 0.0961 0.2236 0.5740);fill-opacity:1;"/>
<path d="M481.329 68.42C479.089 68.42 477.003 68.056 475.071 67.328C473.167 66.572 471.501 65.522 470.073 64.178C468.673 62.806 467.581 61.196 466.797 59.348C466.013 57.5 465.621 55.484 465.621 53.3C465.621 51.116 466.013 49.1 466.797 47.252C467.581 45.404 468.687 43.808 470.115 42.464C471.543 41.092 473.209 40.042 475.113 39.314C477.017 38.558 479.103 38.18 481.371 38.18C483.779 38.18 485.977 38.6 487.965 39.44C489.953 40.252 491.633 41.47 493.005 43.094L489.477 46.412C488.413 45.264 487.223 44.41 485.907 43.85C484.591 43.262 483.163 42.968 481.623 42.968C480.083 42.968 478.669 43.22 477.381 43.724C476.121 44.228 475.015 44.942 474.063 45.866C473.139 46.79 472.411 47.882 471.879 49.142C471.375 50.402 471.123 51.788 471.123 53.3C471.123 54.812 471.375 56.198 471.879 57.458C472.411 58.718 473.139 59.81 474.063 60.734C475.015 61.658 476.121 62.372 477.381 62.876C478.669 63.38 480.083 63.632 481.623 63.632C483.163 63.632 484.591 63.352 485.907 62.792C487.223 62.204 488.413 61.322 489.477 60.146L493.005 63.506C491.633 65.102 489.953 66.32 487.965 67.16C485.977 68 483.765 68.42 481.329 68.42ZM498.708 68V38.6H510.762C514.682 38.6 517.748 39.524 519.96 41.372C522.2 43.22 523.32 45.782 523.32 49.058C523.32 51.214 522.816 53.076 521.808 54.644C520.8 56.184 519.358 57.374 517.482 58.214C515.634 59.026 513.408 59.432 510.804 59.432H501.732L504.168 56.954V68H498.708ZM517.944 68L510.51 57.332H516.348L523.824 68H517.944ZM504.168 57.542L501.732 54.938H510.552C512.96 54.938 514.766 54.42 515.97 53.384C517.202 52.348 517.818 50.906 517.818 49.058C517.818 47.182 517.202 45.74 515.97 44.732C514.766 43.724 512.96 43.22 510.552 43.22H501.732L504.168 40.532V57.542Z" fill="#FF7F00" style="fill:#FF7F00;fill:color(display-p3 1.0000 0.5000 0.0000);fill-opacity:1;"/>
<path d="M197.77 97.12C196.97 97.12 196.23 96.99 195.55 96.73C194.88 96.46 194.295 96.085 193.795 95.605C193.305 95.115 192.92 94.545 192.64 93.895C192.36 93.245 192.22 92.53 192.22 91.75C192.22 90.97 192.36 90.255 192.64 89.605C192.92 88.955 193.31 88.39 193.81 87.91C194.31 87.42 194.895 87.045 195.565 86.785C196.245 86.515 196.985 86.38 197.785 86.38C198.595 86.38 199.34 86.52 200.02 86.8C200.71 87.07 201.295 87.475 201.775 88.015L200.8 88.96C200.4 88.54 199.95 88.23 199.45 88.03C198.95 87.82 198.415 87.715 197.845 87.715C197.255 87.715 196.705 87.815 196.195 88.015C195.695 88.215 195.26 88.495 194.89 88.855C194.52 89.215 194.23 89.645 194.02 90.145C193.82 90.635 193.72 91.17 193.72 91.75C193.72 92.33 193.82 92.87 194.02 93.37C194.23 93.86 194.52 94.285 194.89 94.645C195.26 95.005 195.695 95.285 196.195 95.485C196.705 95.685 197.255 95.785 197.845 95.785C198.415 95.785 198.95 95.685 199.45 95.485C199.95 95.275 200.4 94.955 200.8 94.525L201.775 95.47C201.295 96.01 200.71 96.42 200.02 96.7C199.34 96.98 198.59 97.12 197.77 97.12ZM204.068 97V86.5H208.163C209.523 86.5 210.593 86.825 211.373 87.475C212.153 88.115 212.543 89.01 212.543 90.16C212.543 90.92 212.368 91.575 212.018 92.125C211.668 92.665 211.168 93.08 210.518 93.37C209.868 93.66 209.083 93.805 208.163 93.805H204.893L205.568 93.115V97H204.068ZM211.088 97L208.418 93.19H210.023L212.723 97H211.088ZM205.568 93.265L204.893 92.53H208.118C209.078 92.53 209.803 92.325 210.293 91.915C210.793 91.495 211.043 90.91 211.043 90.16C211.043 89.41 210.793 88.83 210.293 88.42C209.803 88.01 209.078 87.805 208.118 87.805H204.893L205.568 87.055V93.265ZM215.267 97V86.5H222.677V87.805H216.767V95.695H222.887V97H215.267ZM216.632 92.305V91.03H222.032V92.305H216.632ZM224.026 97L228.781 86.5H230.266L235.036 97H233.461L229.216 87.34H229.816L225.571 97H224.026ZM226.051 94.375L226.456 93.175H232.366L232.801 94.375H226.051ZM241.45 97.12C240.65 97.12 239.91 96.99 239.23 96.73C238.56 96.46 237.975 96.085 237.475 95.605C236.985 95.115 236.6 94.545 236.32 93.895C236.04 93.245 235.9 92.53 235.9 91.75C235.9 90.97 236.04 90.255 236.32 89.605C236.6 88.955 236.99 88.39 237.49 87.91C237.99 87.42 238.575 87.045 239.245 86.785C239.925 86.515 240.665 86.38 241.465 86.38C242.275 86.38 243.02 86.52 243.7 86.8C244.39 87.07 244.975 87.475 245.455 88.015L244.48 88.96C244.08 88.54 243.63 88.23 243.13 88.03C242.63 87.82 242.095 87.715 241.525 87.715C240.935 87.715 240.385 87.815 239.875 88.015C239.375 88.215 238.94 88.495 238.57 88.855C238.2 89.215 237.91 89.645 237.7 90.145C237.5 90.635 237.4 91.17 237.4 91.75C237.4 92.33 237.5 92.87 237.7 93.37C237.91 93.86 238.2 94.285 238.57 94.645C238.94 95.005 239.375 95.285 239.875 95.485C240.385 95.685 240.935 95.785 241.525 95.785C242.095 95.785 242.63 95.685 243.13 95.485C243.63 95.275 244.08 94.955 244.48 94.525L245.455 95.47C244.975 96.01 244.39 96.42 243.7 96.7C243.02 96.98 242.27 97.12 241.45 97.12ZM247.749 97V86.5H249.249V97H247.749ZM257.432 97.12C256.632 97.12 255.887 96.985 255.197 96.715C254.517 96.445 253.927 96.07 253.427 95.59C252.927 95.1 252.537 94.53 252.257 93.88C251.977 93.23 251.837 92.52 251.837 91.75C251.837 90.98 251.977 90.27 252.257 89.62C252.537 88.97 252.927 88.405 253.427 87.925C253.927 87.435 254.517 87.055 255.197 86.785C255.877 86.515 256.622 86.38 257.432 86.38C258.232 86.38 258.967 86.515 259.637 86.785C260.317 87.045 260.907 87.42 261.407 87.91C261.917 88.39 262.307 88.955 262.577 89.605C262.857 90.255 262.997 90.97 262.997 91.75C262.997 92.53 262.857 93.245 262.577 93.895C262.307 94.545 261.917 95.115 261.407 95.605C260.907 96.085 260.317 96.46 259.637 96.73C258.967 96.99 258.232 97.12 257.432 97.12ZM257.432 95.785C258.012 95.785 258.547 95.685 259.037 95.485C259.537 95.285 259.967 95.005 260.327 94.645C260.697 94.275 260.982 93.845 261.182 93.355C261.392 92.865 261.497 92.33 261.497 91.75C261.497 91.17 261.392 90.635 261.182 90.145C260.982 89.655 260.697 89.23 260.327 88.87C259.967 88.5 259.537 88.215 259.037 88.015C258.547 87.815 258.012 87.715 257.432 87.715C256.842 87.715 256.297 87.815 255.797 88.015C255.307 88.215 254.877 88.5 254.507 88.87C254.137 89.23 253.847 89.655 253.637 90.145C253.437 90.635 253.337 91.17 253.337 91.75C253.337 92.33 253.437 92.865 253.637 93.355C253.847 93.845 254.137 94.275 254.507 94.645C254.877 95.005 255.307 95.285 255.797 95.485C256.297 95.685 256.842 95.785 257.432 95.785ZM256.307 85.645L258.347 83.695H260.177L257.657 85.645H256.307ZM265.59 97V86.5H266.82L273.765 95.125H273.12V86.5H274.62V97H273.39L266.445 88.375H267.09V97H265.59ZM282.391 97V86.5H286.816C287.936 86.5 288.921 86.72 289.771 87.16C290.631 87.6 291.296 88.215 291.766 89.005C292.246 89.795 292.486 90.71 292.486 91.75C292.486 92.79 292.246 93.705 291.766 94.495C291.296 95.285 290.631 95.9 289.771 96.34C288.921 96.78 287.936 97 286.816 97H282.391ZM283.891 95.695H286.726C287.596 95.695 288.346 95.53 288.976 95.2C289.616 94.87 290.111 94.41 290.461 93.82C290.811 93.22 290.986 92.53 290.986 91.75C290.986 90.96 290.811 90.27 290.461 89.68C290.111 89.09 289.616 88.63 288.976 88.3C288.346 87.97 287.596 87.805 286.726 87.805H283.891V95.695ZM295.084 97V86.5H302.494V87.805H296.584V95.695H302.704V97H295.084ZM296.449 92.305V91.03H301.849V92.305H296.449ZM309.761 97V86.5H313.856C314.776 86.5 315.561 86.645 316.211 86.935C316.861 87.225 317.361 87.645 317.711 88.195C318.061 88.745 318.236 89.4 318.236 90.16C318.236 90.92 318.061 91.575 317.711 92.125C317.361 92.665 316.861 93.085 316.211 93.385C315.561 93.675 314.776 93.82 313.856 93.82H310.586L311.261 93.115V97H309.761ZM311.261 93.265L310.586 92.515H313.811C314.771 92.515 315.496 92.31 315.986 91.9C316.486 91.49 316.736 90.91 316.736 90.16C316.736 89.41 316.486 88.83 315.986 88.42C315.496 88.01 314.771 87.805 313.811 87.805H310.586L311.261 87.055V93.265ZM318.622 97L323.377 86.5H324.862L329.632 97H328.057L323.812 87.34H324.412L320.167 97H318.622ZM320.647 94.375L321.052 93.175H326.962L327.397 94.375H320.647ZM323.002 85.645L325.042 83.695H326.872L324.352 85.645H323.002ZM336.092 97.12C335.282 97.12 334.537 96.99 333.857 96.73C333.177 96.46 332.587 96.085 332.087 95.605C331.587 95.115 331.197 94.545 330.917 93.895C330.637 93.245 330.497 92.53 330.497 91.75C330.497 90.97 330.637 90.255 330.917 89.605C331.197 88.955 331.587 88.39 332.087 87.91C332.597 87.42 333.192 87.045 333.872 86.785C334.552 86.515 335.302 86.38 336.122 86.38C336.952 86.38 337.712 86.515 338.402 86.785C339.092 87.055 339.677 87.46 340.157 88L339.227 88.93C338.797 88.51 338.327 88.205 337.817 88.015C337.317 87.815 336.772 87.715 336.182 87.715C335.582 87.715 335.022 87.815 334.502 88.015C333.992 88.215 333.547 88.495 333.167 88.855C332.797 89.215 332.507 89.645 332.297 90.145C332.097 90.635 331.997 91.17 331.997 91.75C331.997 92.32 332.097 92.855 332.297 93.355C332.507 93.845 332.797 94.275 333.167 94.645C333.547 95.005 333.992 95.285 334.502 95.485C335.012 95.685 335.567 95.785 336.167 95.785C336.727 95.785 337.262 95.7 337.772 95.53C338.292 95.35 338.772 95.055 339.212 94.645L340.067 95.785C339.547 96.225 338.937 96.56 338.237 96.79C337.547 97.01 336.832 97.12 336.092 97.12ZM340.067 95.785L338.627 95.59V91.69H340.067V95.785ZM343.239 97V86.5H344.739V97H343.239ZM348.183 97V86.5H349.413L356.358 95.125H355.713V86.5H357.213V97H355.983L349.038 88.375H349.683V97H348.183ZM359.065 97L363.82 86.5H365.305L370.075 97H368.5L364.255 87.34H364.855L360.61 97H359.065ZM361.09 94.375L361.495 93.175H367.405L367.84 94.375H361.09ZM375.002 97.12C374.202 97.12 373.437 97 372.707 96.76C371.977 96.51 371.402 96.19 370.982 95.8L371.537 94.63C371.937 94.98 372.447 95.27 373.067 95.5C373.687 95.73 374.332 95.845 375.002 95.845C375.612 95.845 376.107 95.775 376.487 95.635C376.867 95.495 377.147 95.305 377.327 95.065C377.507 94.815 377.597 94.535 377.597 94.225C377.597 93.865 377.477 93.575 377.237 93.355C377.007 93.135 376.702 92.96 376.322 92.83C375.952 92.69 375.542 92.57 375.092 92.47C374.642 92.37 374.187 92.255 373.727 92.125C373.277 91.985 372.862 91.81 372.482 91.6C372.112 91.39 371.812 91.11 371.582 90.76C371.352 90.4 371.237 89.94 371.237 89.38C371.237 88.84 371.377 88.345 371.657 87.895C371.947 87.435 372.387 87.07 372.977 86.8C373.577 86.52 374.337 86.38 375.257 86.38C375.867 86.38 376.472 86.46 377.072 86.62C377.672 86.78 378.192 87.01 378.632 87.31L378.137 88.51C377.687 88.21 377.212 87.995 376.712 87.865C376.212 87.725 375.727 87.655 375.257 87.655C374.667 87.655 374.182 87.73 373.802 87.88C373.422 88.03 373.142 88.23 372.962 88.48C372.792 88.73 372.707 89.01 372.707 89.32C372.707 89.69 372.822 89.985 373.052 90.205C373.292 90.425 373.597 90.6 373.967 90.73C374.347 90.86 374.762 90.98 375.212 91.09C375.662 91.19 376.112 91.305 376.562 91.435C377.022 91.565 377.437 91.735 377.807 91.945C378.187 92.155 378.492 92.435 378.722 92.785C378.952 93.135 379.067 93.585 379.067 94.135C379.067 94.665 378.922 95.16 378.632 95.62C378.342 96.07 377.892 96.435 377.282 96.715C376.682 96.985 375.922 97.12 375.002 97.12ZM388.302 97L384.792 86.5H386.337L389.562 96.19H388.782L392.127 86.5H393.507L396.777 96.19H396.027L399.297 86.5H400.722L397.212 97H395.637L392.577 88.015H392.982L389.907 97H388.302ZM402.856 97V86.5H410.266V87.805H404.356V95.695H410.476V97H402.856ZM404.221 92.305V91.03H409.621V92.305H404.221ZM413.205 97V86.5H417.915C419.125 86.5 420.055 86.745 420.705 87.235C421.355 87.715 421.68 88.375 421.68 89.215C421.68 89.785 421.55 90.265 421.29 90.655C421.04 91.045 420.7 91.345 420.27 91.555C419.84 91.765 419.375 91.87 418.875 91.87L419.145 91.42C419.745 91.42 420.275 91.525 420.735 91.735C421.195 91.945 421.56 92.255 421.83 92.665C422.1 93.065 422.235 93.565 422.235 94.165C422.235 95.065 421.895 95.765 421.215 96.265C420.545 96.755 419.545 97 418.215 97H413.205ZM414.705 95.785H418.155C418.985 95.785 419.62 95.645 420.06 95.365C420.5 95.085 420.72 94.645 420.72 94.045C420.72 93.435 420.5 92.99 420.06 92.71C419.62 92.43 418.985 92.29 418.155 92.29H414.57V91.075H417.78C418.54 91.075 419.13 90.935 419.55 90.655C419.97 90.375 420.18 89.955 420.18 89.395C420.18 88.835 419.97 88.415 419.55 88.135C419.13 87.855 418.54 87.715 417.78 87.715H414.705V95.785ZM429.966 94.24C429.726 94.24 429.501 94.185 429.291 94.075C429.081 93.955 428.911 93.79 428.781 93.58C428.661 93.37 428.601 93.13 428.601 92.86C428.601 92.6 428.661 92.37 428.781 92.17C428.911 91.96 429.081 91.795 429.291 91.675C429.501 91.555 429.726 91.495 429.966 91.495C430.216 91.495 430.441 91.555 430.641 91.675C430.851 91.795 431.016 91.96 431.136 92.17C431.256 92.37 431.316 92.6 431.316 92.86C431.316 93.13 431.256 93.37 431.136 93.58C431.016 93.79 430.851 93.955 430.641 94.075C430.441 94.185 430.216 94.24 429.966 94.24ZM443.226 97.12C442.426 97.12 441.686 96.99 441.006 96.73C440.336 96.46 439.751 96.085 439.251 95.605C438.761 95.115 438.376 94.545 438.096 93.895C437.816 93.245 437.676 92.53 437.676 91.75C437.676 90.97 437.816 90.255 438.096 89.605C438.376 88.955 438.766 88.39 439.266 87.91C439.766 87.42 440.351 87.045 441.021 86.785C441.701 86.515 442.441 86.38 443.241 86.38C444.051 86.38 444.796 86.52 445.476 86.8C446.166 87.07 446.751 87.475 447.231 88.015L446.256 88.96C445.856 88.54 445.406 88.23 444.906 88.03C444.406 87.82 443.871 87.715 443.301 87.715C442.711 87.715 442.161 87.815 441.651 88.015C441.151 88.215 440.716 88.495 440.346 88.855C439.976 89.215 439.686 89.645 439.476 90.145C439.276 90.635 439.176 91.17 439.176 91.75C439.176 92.33 439.276 92.87 439.476 93.37C439.686 93.86 439.976 94.285 440.346 94.645C440.716 95.005 441.151 95.285 441.651 95.485C442.161 95.685 442.711 95.785 443.301 95.785C443.871 95.785 444.406 95.685 444.906 95.485C445.406 95.275 445.856 94.955 446.256 94.525L447.231 95.47C446.751 96.01 446.166 96.42 445.476 96.7C444.796 96.98 444.046 97.12 443.226 97.12ZM453.737 97.12C452.937 97.12 452.192 96.985 451.502 96.715C450.822 96.445 450.232 96.07 449.732 95.59C449.232 95.1 448.842 94.53 448.562 93.88C448.282 93.23 448.142 92.52 448.142 91.75C448.142 90.98 448.282 90.27 448.562 89.62C448.842 88.97 449.232 88.405 449.732 87.925C450.232 87.435 450.822 87.055 451.502 86.785C452.182 86.515 452.927 86.38 453.737 86.38C454.537 86.38 455.272 86.515 455.942 86.785C456.622 87.045 457.212 87.42 457.712 87.91C458.222 88.39 458.612 88.955 458.882 89.605C459.162 90.255 459.302 90.97 459.302 91.75C459.302 92.53 459.162 93.245 458.882 93.895C458.612 94.545 458.222 95.115 457.712 95.605C457.212 96.085 456.622 96.46 455.942 96.73C455.272 96.99 454.537 97.12 453.737 97.12ZM453.737 95.785C454.317 95.785 454.852 95.685 455.342 95.485C455.842 95.285 456.272 95.005 456.632 94.645C457.002 94.275 457.287 93.845 457.487 93.355C457.697 92.865 457.802 92.33 457.802 91.75C457.802 91.17 457.697 90.635 457.487 90.145C457.287 89.655 457.002 89.23 456.632 88.87C456.272 88.5 455.842 88.215 455.342 88.015C454.852 87.815 454.317 87.715 453.737 87.715C453.147 87.715 452.602 87.815 452.102 88.015C451.612 88.215 451.182 88.5 450.812 88.87C450.442 89.23 450.152 89.655 449.942 90.145C449.742 90.635 449.642 91.17 449.642 91.75C449.642 92.33 449.742 92.865 449.942 93.355C450.152 93.845 450.442 94.275 450.812 94.645C451.182 95.005 451.612 95.285 452.102 95.485C452.602 95.685 453.147 95.785 453.737 95.785ZM464.955 97.12C464.155 97.12 463.39 97 462.66 96.76C461.93 96.51 461.355 96.19 460.935 95.8L461.49 94.63C461.89 94.98 462.4 95.27 463.02 95.5C463.64 95.73 464.285 95.845 464.955 95.845C465.565 95.845 466.06 95.775 466.44 95.635C466.82 95.495 467.1 95.305 467.28 95.065C467.46 94.815 467.55 94.535 467.55 94.225C467.55 93.865 467.43 93.575 467.19 93.355C466.96 93.135 466.655 92.96 466.275 92.83C465.905 92.69 465.495 92.57 465.045 92.47C464.595 92.37 464.14 92.255 463.68 92.125C463.23 91.985 462.815 91.81 462.435 91.6C462.065 91.39 461.765 91.11 461.535 90.76C461.305 90.4 461.19 89.94 461.19 89.38C461.19 88.84 461.33 88.345 461.61 87.895C461.9 87.435 462.34 87.07 462.93 86.8C463.53 86.52 464.29 86.38 465.21 86.38C465.82 86.38 466.425 86.46 467.025 86.62C467.625 86.78 468.145 87.01 468.585 87.31L468.09 88.51C467.64 88.21 467.165 87.995 466.665 87.865C466.165 87.725 465.68 87.655 465.21 87.655C464.62 87.655 464.135 87.73 463.755 87.88C463.375 88.03 463.095 88.23 462.915 88.48C462.745 88.73 462.66 89.01 462.66 89.32C462.66 89.69 462.775 89.985 463.005 90.205C463.245 90.425 463.55 90.6 463.92 90.73C464.3 90.86 464.715 90.98 465.165 91.09C465.615 91.19 466.065 91.305 466.515 91.435C466.975 91.565 467.39 91.735 467.76 91.945C468.14 92.155 468.445 92.435 468.675 92.785C468.905 93.135 469.02 93.585 469.02 94.135C469.02 94.665 468.875 95.16 468.585 95.62C468.295 96.07 467.845 96.435 467.235 96.715C466.635 96.985 465.875 97.12 464.955 97.12ZM473.45 97V87.805H469.85V86.5H478.535V87.805H474.935V97H473.45ZM478.351 97L483.106 86.5H484.591L489.361 97H487.786L483.541 87.34H484.141L479.896 97H478.351ZM480.376 94.375L480.781 93.175H486.691L487.126 94.375H480.376ZM495.556 97V86.5H499.651C501.011 86.5 502.081 86.825 502.861 87.475C503.641 88.115 504.031 89.01 504.031 90.16C504.031 90.92 503.856 91.575 503.506 92.125C503.156 92.665 502.656 93.08 502.006 93.37C501.356 93.66 500.571 93.805 499.651 93.805H496.381L497.056 93.115V97H495.556ZM502.576 97L499.906 93.19H501.511L504.211 97H502.576ZM497.056 93.265L496.381 92.53H499.606C500.566 92.53 501.291 92.325 501.781 91.915C502.281 91.495 502.531 90.91 502.531 90.16C502.531 89.41 502.281 88.83 501.781 88.42C501.291 88.01 500.566 87.805 499.606 87.805H496.381L497.056 87.055V93.265ZM506.754 97V86.5H508.254V97H506.754ZM516.393 97.12C515.593 97.12 514.853 96.99 514.173 96.73C513.503 96.46 512.918 96.085 512.418 95.605C511.928 95.115 511.543 94.545 511.263 93.895C510.983 93.245 510.843 92.53 510.843 91.75C510.843 90.97 510.983 90.255 511.263 89.605C511.543 88.955 511.933 88.39 512.433 87.91C512.933 87.42 513.518 87.045 514.188 86.785C514.868 86.515 515.608 86.38 516.408 86.38C517.218 86.38 517.963 86.52 518.643 86.8C519.333 87.07 519.918 87.475 520.398 88.015L519.423 88.96C519.023 88.54 518.573 88.23 518.073 88.03C517.573 87.82 517.038 87.715 516.468 87.715C515.878 87.715 515.328 87.815 514.818 88.015C514.318 88.215 513.883 88.495 513.513 88.855C513.143 89.215 512.853 89.645 512.643 90.145C512.443 90.635 512.343 91.17 512.343 91.75C512.343 92.33 512.443 92.87 512.643 93.37C512.853 93.86 513.143 94.285 513.513 94.645C513.883 95.005 514.318 95.285 514.818 95.485C515.328 95.685 515.878 95.785 516.468 95.785C517.038 95.785 517.573 95.685 518.073 95.485C518.573 95.275 519.023 94.955 519.423 94.525L520.398 95.47C519.918 96.01 519.333 96.42 518.643 96.7C517.963 96.98 517.213 97.12 516.393 97.12ZM520.852 97L525.607 86.5H527.092L531.862 97H530.287L526.042 87.34H526.642L522.397 97H520.852ZM522.877 94.375L523.282 93.175H529.192L529.627 94.375H522.877Z" fill="#193992" style="fill:#193992;fill:color(display-p3 0.0961 0.2236 0.5740);fill-opacity:1;"/>
<defs>
<linearGradient id="paint0_linear_2011_129" x1="52.9512" y1="5" x2="52.9512" y2="48" gradientUnits="userSpaceOnUse">
<stop stop-color="#FF7F00" style="stop-color:#FF7F00;stop-color:color(display-p3 1.0000 0.5000 0.0000);stop-opacity:1;"/>
<stop offset="1" stop-color="#993800" style="stop-color:#993800;stop-color:color(display-p3 0.6000 0.2200 0.0000);stop-opacity:1;"/>
</linearGradient>
<linearGradient id="paint1_linear_2011_129" x1="0.5" y1="93" x2="35.5" y2="97" gradientUnits="userSpaceOnUse">
<stop stop-color="#FF7F00" style="stop-color:#FF7F00;stop-color:color(display-p3 1.0000 0.5000 0.0000);stop-opacity:1;"/>
<stop offset="1" stop-color="#993800" style="stop-color:#993800;stop-color:color(display-p3 0.6000 0.2200 0.0000);stop-opacity:1;"/>
</linearGradient>
<linearGradient id="paint2_linear_2011_129" x1="0.5" y1="93" x2="35.5" y2="97" gradientUnits="userSpaceOnUse">
<stop stop-color="#FF7F00" style="stop-color:#FF7F00;stop-color:color(display-p3 1.0000 0.5000 0.0000);stop-opacity:1;"/>
<stop offset="1" stop-color="#993800" style="stop-color:#993800;stop-color:color(display-p3 0.6000 0.2200 0.0000);stop-opacity:1;"/>
</linearGradient>
<linearGradient id="paint3_linear_2011_129" x1="0.5" y1="93" x2="35.5" y2="97" gradientUnits="userSpaceOnUse">
<stop stop-color="#FF7F00" style="stop-color:#FF7F00;stop-color:color(display-p3 1.0000 0.5000 0.0000);stop-opacity:1;"/>
<stop offset="1" stop-color="#993800" style="stop-color:#993800;stop-color:color(display-p3 0.6000 0.2200 0.0000);stop-opacity:1;"/>
</linearGradient>
<linearGradient id="paint4_linear_2011_129" x1="75.7511" y1="55.3649" x2="51.3044" y2="94.4009" gradientUnits="userSpaceOnUse">
<stop stop-color="#FF7F00" style="stop-color:#FF7F00;stop-color:color(display-p3 1.0000 0.5000 0.0000);stop-opacity:1;"/>
<stop offset="1" stop-color="#993800" style="stop-color:#993800;stop-color:color(display-p3 0.6000 0.2200 0.0000);stop-opacity:1;"/>
</linearGradient>
<linearGradient id="paint5_linear_2011_129" x1="97.5" y1="1.60299e-06" x2="48" y2="117" gradientUnits="userSpaceOnUse">
<stop stop-color="#FF7F00" style="stop-color:#FF7F00;stop-color:color(display-p3 1.0000 0.5000 0.0000);stop-opacity:1;"/>
<stop offset="1" stop-color="#193992" style="stop-color:#193992;stop-color:color(display-p3 0.0961 0.2236 0.5740);stop-opacity:1;"/>
</linearGradient>
</defs>
</svg>
