<svg width="167" height="127" viewBox="0 0 167 127" fill="none" xmlns="http://www.w3.org/2000/svg">
<path d="M46.5 85C37.3757 94.9802 29.5 112 29.5 112C29.5 112 42.4133 99.1548 51 95.5C78.6194 88.0143 88.8881 78.8985 92 62C95.1119 45.1015 95 47 99.5 42.5C104 38 123.5 31 123.5 31C123.5 31 108.735 30.7377 99.5 34C84.7605 21.9263 69.8616 33.8585 71 41.5C72.1384 49.1415 71.172 48.0593 70.5 49.5C69.828 50.9407 72.6578 55.1741 72 59C71.6758 58.1892 71.3433 57.4093 71 56.6581C65.6918 45.0432 57.8171 40.3345 38.5 35.5C20.4605 30.131 12.3412 26.0857 0.5 17.5C2.87309 33.1355 13.7635 38.3892 46 49.5C33.3635 48.3381 27.4391 47.124 15 42.5C18.8252 48.3974 20 53.6242 32 55.2824C44 56.9405 45 56.5 48.5 59C41.7299 60.4477 32 58 32 58C32 58 36 63.1643 43 65C57.5365 68.812 58.3234 71.5852 46.5 85Z" fill="#193992" style="fill:#193992;fill:color(display-p3 0.0961 0.2236 0.5740);fill-opacity:1;"/>
<path d="M68.5 96.5C45.8491 103.005 35.6269 110.002 28.5 127C88.4799 120.696 114.633 107.051 139.5 63L152.5 41.5L166.5 55.5V0L118.5 21.1284L133 29.5C107.55 72.2293 93.3955 88.904 68.5 96.5Z" fill="#193992" style="fill:#193992;fill:color(display-p3 0.0961 0.2236 0.5740);fill-opacity:1;"/>
<path d="M40.314 33.5C35.7581 25.9169 35.7726 19.1166 37.814 5C43.2541 18.6079 47.9238 24.18 58.314 31.5C67.442 39.2106 69.9299 41.9878 69.314 48C60.1465 38.9767 52.8623 37.1963 40.314 33.5Z" fill="url(#paint0_linear_2011_115)"/>
<path d="M36.5 76.5791C33 75.6142 8 81.0791 8 81.0791C8 81.0791 33 83.5791 36.5 82.5791C40 81.5791 40 77.5439 36.5 76.5791Z" fill="url(#paint1_linear_2011_115)"/>
<path d="M28.5 66.5791C25 65.6142 0 71.0791 0 71.0791C0 71.0791 25 73.5791 28.5 72.5791C32 71.5791 32 67.5439 28.5 66.5791Z" fill="url(#paint2_linear_2011_115)"/>
<path d="M28.5 86.5C25 85.5351 0 91 0 91C0 91 25 93.5 28.5 92.5C32 91.5 32 87.4649 28.5 86.5Z" fill="url(#paint3_linear_2011_115)"/>
<path d="M67.6907 79.1364C57.771 85.6095 40.6857 97.7183 29.5 112C38.3949 102.979 46.7212 99.58 53.6096 95.6056C60.4981 91.6312 98.7252 86.0675 98.3926 50.4033C99.4537 38.8605 137.7 25.5029 118 33C98.2999 40.4971 91.0795 44.4667 88.544 52.8809C86.0085 61.295 77.6103 72.6632 67.6907 79.1364Z" fill="url(#paint4_linear_2011_115)"/>
<path d="M68.6481 96.5C45.9154 103.005 35.6526 110.002 28.5 127C28.5 127 37.5 115 61.5 111C79.3376 108.027 94.8994 99.838 103.5 91.5C122.067 73.5 166.5 0 166.5 0L117 21.5L132 30C106.458 72.7293 93.6334 88.904 68.6481 96.5Z" fill="url(#paint5_linear_2011_115)"/>
<defs>
<linearGradient id="paint0_linear_2011_115" x1="52.9512" y1="5" x2="52.9512" y2="48" gradientUnits="userSpaceOnUse">
<stop stop-color="#FF7F00" style="stop-color:#FF7F00;stop-color:color(display-p3 1.0000 0.5000 0.0000);stop-opacity:1;"/>
<stop offset="1" stop-color="#993800" style="stop-color:#993800;stop-color:color(display-p3 0.6000 0.2200 0.0000);stop-opacity:1;"/>
</linearGradient>
<linearGradient id="paint1_linear_2011_115" x1="0.5" y1="93" x2="35.5" y2="97" gradientUnits="userSpaceOnUse">
<stop stop-color="#FF7F00" style="stop-color:#FF7F00;stop-color:color(display-p3 1.0000 0.5000 0.0000);stop-opacity:1;"/>
<stop offset="1" stop-color="#993800" style="stop-color:#993800;stop-color:color(display-p3 0.6000 0.2200 0.0000);stop-opacity:1;"/>
</linearGradient>
<linearGradient id="paint2_linear_2011_115" x1="0.5" y1="93" x2="35.5" y2="97" gradientUnits="userSpaceOnUse">
<stop stop-color="#FF7F00" style="stop-color:#FF7F00;stop-color:color(display-p3 1.0000 0.5000 0.0000);stop-opacity:1;"/>
<stop offset="1" stop-color="#993800" style="stop-color:#993800;stop-color:color(display-p3 0.6000 0.2200 0.0000);stop-opacity:1;"/>
</linearGradient>
<linearGradient id="paint3_linear_2011_115" x1="0.5" y1="93" x2="35.5" y2="97" gradientUnits="userSpaceOnUse">
<stop stop-color="#FF7F00" style="stop-color:#FF7F00;stop-color:color(display-p3 1.0000 0.5000 0.0000);stop-opacity:1;"/>
<stop offset="1" stop-color="#993800" style="stop-color:#993800;stop-color:color(display-p3 0.6000 0.2200 0.0000);stop-opacity:1;"/>
</linearGradient>
<linearGradient id="paint4_linear_2011_115" x1="75.7511" y1="55.3649" x2="51.3044" y2="94.4009" gradientUnits="userSpaceOnUse">
<stop stop-color="#FF7F00" style="stop-color:#FF7F00;stop-color:color(display-p3 1.0000 0.5000 0.0000);stop-opacity:1;"/>
<stop offset="1" stop-color="#993800" style="stop-color:#993800;stop-color:color(display-p3 0.6000 0.2200 0.0000);stop-opacity:1;"/>
</linearGradient>
<linearGradient id="paint5_linear_2011_115" x1="97.5" y1="1.60299e-06" x2="48" y2="117" gradientUnits="userSpaceOnUse">
<stop stop-color="#FF7F00" style="stop-color:#FF7F00;stop-color:color(display-p3 1.0000 0.5000 0.0000);stop-opacity:1;"/>
<stop offset="1" stop-color="#193992" style="stop-color:#193992;stop-color:color(display-p3 0.0961 0.2236 0.5740);stop-opacity:1;"/>
</linearGradient>
</defs>
</svg>
